<svg id="Layer_1" data-name="Layer 1" xmlns="http://www.w3.org/2000/svg" viewBox="0 0 500 500">
  <defs>
    <style>
      .cls-1 {
        fill: #fff;
      }
    </style>
  </defs>
  <title>again</title>
  <path class="cls-1" d="M410.65,245.63A39.4,39.4,0,0,0,371.29,285a121.29,121.29,0,1,1-175.71-108.5A39.36,39.36,0,0,0,255,227.77l72.8-72.8a39.36,39.36,0,0,0,0-55.66L255,26.51a39.36,39.36,0,1,0-55.66,55.66l7.44,7.44a200.08,200.08,0,0,0-98.24,336.8A200,200,0,0,0,450,285,39.4,39.4,0,0,0,410.65,245.63ZM378.19,413.18A181.29,181.29,0,0,1,121.81,156.8a179.13,179.13,0,0,1,105.57-51.71,9.36,9.36,0,0,0,5.47-15.91L212.61,68.93a20.63,20.63,0,0,1,29.18-29.18l72.8,72.8a20.63,20.63,0,0,1,0,29.18l-72.8,72.8a20.63,20.63,0,0,1-29.18-29.18l22.63-22.63a9.36,9.36,0,0,0-8.15-15.86A140.22,140.22,0,0,0,110,285c0,77.21,62.81,140,140,140s140-62.81,140-140a20.64,20.64,0,0,1,41.27,0A180.09,180.09,0,0,1,378.19,413.18Z"/>
  <path class="cls-1" d="M266.49,167.53a9.36,9.36,0,0,0-13.24,0L251.8,169A9.36,9.36,0,0,0,265,182.21l1.44-1.44A9.36,9.36,0,0,0,266.49,167.53Z"/>
  <path class="cls-1" d="M310.55,123.52a9.36,9.36,0,0,0-13.24,0l-23.82,23.82a9.36,9.36,0,0,0,13.24,13.24l23.82-23.82A9.36,9.36,0,0,0,310.55,123.52Z"/>
</svg>
