<svg id="Layer_1" data-name="Layer 1" xmlns="http://www.w3.org/2000/svg" viewBox="0 0 500 500">
  <defs>
    <style>
      .cls-1 {
        fill: #fff;
      }
    </style>
  </defs>
  <title>cerdito</title>
  <g>
    <path class="cls-1" d="M306.3,453.93a24.65,24.65,0,0,1-14.46-5,23.46,23.46,0,0,1-9.37-19.06l.81-39.46a229,229,0,0,1-51.17,2c0,4.7,0,10.42.12,15.58l-.15,7.29c-.19,9.27-.41,19.79-16.17,25.22L182.8,450c-6.58,1.88-13.81,1.52-19.78-1.85a23.61,23.61,0,0,1-12.34-21l.89-43.35c.18-4.32.33-9.19.35-12.74-25.28-12.46-46.71-29.71-62.22-50.15L45.83,320c-14-.29-25.34-11-25.68-24.12L8.5,227.31a10.84,10.84,0,0,1-.13-1.93c.28-13.63,12.24-24.46,26.69-24.16l34,.7c11.4-33,36.54-61.67,71.42-81.31a2.74,2.74,0,0,1,3.74,1.07L148.28,137c.27,1.71.23,2.88-1,3.6-31.72,17.92-50.9,42.15-59.93,71.88a8.81,8.81,0,0,1-.45,1.19l-1.3,2.93a10.29,10.29,0,0,1-9.62,6.12l-41.3-.85c-2.68-.05-5.11,1.45-5.58,3.35l11.56,68.07a10,10,0,0,1,.14,1.94c0,2.18,2.52,4.13,5.5,4.19l48.56,1a10.34,10.34,0,0,1,7.71,3.7l3.18,3.81c14.91,19.69,35.7,35.84,60.43,47.07,7.19,3.25,7,8.29,6,29.48l-.87,42.75a3.1,3.1,0,0,0,1.27,2.61,4,4,0,0,0,3.48.67l33.69-9.65a11.56,11.56,0,0,0,1.49-.65c.17-1.15.22-3.46.26-5.35l.14-6.91c-.52-30.7-.19-31,3.69-34.48a10.31,10.31,0,0,1,8.18-2.58,210.16,210.16,0,0,0,68.31-3,10.31,10.31,0,0,1,12.47,10.46l-.24,6.32-.93,45.26a3.05,3.05,0,0,0,1.27,2.61,4,4,0,0,0,3.49.67l33.67-9.65a11.56,11.56,0,0,0,1.49-.65c.17-1.15.22-3.46.26-5.35l1.31-64a10.47,10.47,0,0,1,5-8.64c38.37-23.84,60.82-59.55,61.61-98,1.45-71-71-130.31-161.54-132.16C214.37,114,201.55,96.3,192.2,83.38c-5.12-7.06-8.74-11.74-13.93-14.23l-.65,31.56a2.13,2.13,0,0,1-2.17,2.08L159,104.33a2.12,2.12,0,0,1-2.08-2.16l.93-45.63a10.4,10.4,0,0,1,10.74-10.1c22.64.56,32.4,14,40.25,24.85,8.66,12,16.14,22.31,41.21,22.82C352,96.19,433.52,164.91,431.84,247.3c-.9,43.95-25.14,84.54-66.76,112.14L363.88,418c-.19,9.27-.41,19.79-16.15,25.22L313.52,453a24.46,24.46,0,0,1-7.22.93"/>
    <path class="cls-1" d="M452.23,280.53A41.45,41.45,0,0,1,423,267.44c-5.84-6.26-12.75-17.53-12.37-35.63l20.61.42c-.18,8.85,2.17,16.16,6.84,21.13a20.39,20.39,0,0,0,14.6,6.55c8.2.17,17.81-4.75,19.41-18.84a3.91,3.91,0,0,1,4-3.33l12.78.26a3.87,3.87,0,0,1,3.81,4.14c-2.33,25.73-21.64,38.78-40.44,38.39"/>
    <path class="cls-1" d="M154.21,212.75a3.5,3.5,0,0,1-2.55,1l-17.59-.36a3.77,3.77,0,0,1-2.6-1.14,3.28,3.28,0,0,1-1.13-2.56l.33-16a3.28,3.28,0,0,1,1.23-2.51,3.78,3.78,0,0,1,2.65-1l17.59.36a3.51,3.51,0,0,1,2.51,1.15,3.45,3.45,0,0,1,1,2.55l-.33,16a3.45,3.45,0,0,1-1.13,2.51"/>
  </g>
</svg>
