<svg id="Layer_1" data-name="Layer 1" xmlns="http://www.w3.org/2000/svg" viewBox="0 0 500 500">
  <defs>
    <style>
      .cls-1 {
        fill: #fff;
      }
    </style>
  </defs>
  <title>lapiz</title>
  <path class="cls-1" d="M109.9,51.69a31.74,31.74,0,0,0-44.81,1.83L38.86,82a31.74,31.74,0,0,0,1.87,44.77L347.19,409.18l75.44,17.3,11.65,10.73a12.66,12.66,0,0,0,17.15-18.61l-11.66-10.74-23.42-73.72Zm300,345.95-39.66-9.14,27.39-29.72Zm-258.2-273-34.93,37.9L97.87,145.13l34.9-37.87Zm205.4,259.4-231-212.93L161,133.28,392,346.21ZM57.44,99.16,83.67,70.71a6.4,6.4,0,0,1,9-.37l30.75,28.34-34.9,37.87L57.81,108.21a6.4,6.4,0,0,1-.37-9l0,0Z"/>
</svg>
