<svg xmlns="http://www.w3.org/2000/svg" xmlns:xlink="http://www.w3.org/1999/xlink" viewBox="0 0 288.97 93.52">
  <defs>
    <style>
      .a {
        fill: none;
      }

      .b {
        fill: #e21e30;
      }

      .c {
        clip-path: url(#a);
      }

      .d {
        fill: url(#b);
      }

      .e {
        clip-path: url(#c);
      }

      .f {
        fill: url(#d);
      }
    </style>
    <clipPath id="a" transform="translate(-494.65 -22.93)">
      <path class="a" d="M509.41,31.46a2.24,2.24,0,0,0-2.24,2.23V70.27c0,17.71,11.39,29.26,29.09,29.26h15.07a2.25,2.25,0,0,0,2.24-2.24v-18A2.25,2.25,0,0,0,551.32,77h-9.62c-1.23,0-7-.19-7-7V33.69a2.24,2.24,0,0,0-2.24-2.23Z"/>
    </clipPath>
    <linearGradient id="b" x1="220.47" y1="367.21" x2="221.38" y2="367.21" gradientTransform="matrix(0, 30.88, 30.88, 0, -10809.8, -6741.94)" gradientUnits="userSpaceOnUse">
      <stop offset="0" stop-color="#e21e31"/>
      <stop offset="0.71" stop-color="#c71b2c"/>
      <stop offset="0.95" stop-color="#bc1a2a"/>
      <stop offset="1" stop-color="#bc1a2a"/>
    </linearGradient>
    <clipPath id="c" transform="translate(-494.65 -22.93)">
      <path class="a" d="M540.29,41.29A2.25,2.25,0,0,0,538,43.53V64.17a2.25,2.25,0,0,0,2.25,2.24h11c1.24,0,5.56.19,5.56,7V97.28a2.25,2.25,0,0,0,2.24,2.24h23.07a2.25,2.25,0,0,0,2.24-2.24V70.54c0-17.71-11.39-29.26-29.09-29.26Z"/>
    </clipPath>
    <linearGradient id="d" x1="219.87" y1="366.82" x2="220.78" y2="366.82" gradientTransform="matrix(0, -55.53, -55.53, 0, 20930.94, 12302.81)" gradientUnits="userSpaceOnUse">
      <stop offset="0" stop-color="#e21e31"/>
      <stop offset="0.31" stop-color="#dc1d30"/>
      <stop offset="0.72" stop-color="#cc1c2d"/>
      <stop offset="1" stop-color="#bd1a2a"/>
    </linearGradient>
  </defs>
  <title>logoBancatlan</title>
  <g>
    <g>
      <path class="b" d="M624.73,40.17a7,7,0,0,1-4.52,6.72c2.8.95,5,3.11,5,7.25,0,7.36-5.88,8.73-12.36,8.73A61.71,61.71,0,0,1,602.16,62V32.54a56.37,56.37,0,0,1,10.17-.92c5.8,0,12.4,1.12,12.4,8.56m-15.49,9.38v7.35a24.37,24.37,0,0,0,3.45.22c3.14,0,5.38-.53,5.38-3.69,0-3.35-2.39-3.88-5.52-3.88Zm3.3-5.28c3,0,5.23-.51,5.23-3.56s-2.14-3.4-5.44-3.4a26.44,26.44,0,0,0-3.06.2v6.77Z" transform="translate(-494.65 -22.93)"/>
      <path class="b" d="M629.13,55.23c0-4.22,1.87-6.78,6.68-7.57a52.66,52.66,0,0,1,6.66-.56c0-2.11-1.09-2.91-3.59-2.91a69.35,69.35,0,0,0-8.4.63l-.54-5.07a56,56,0,0,1,9.35-.93c5.3,0,9.74,1.51,9.74,7.7V56c0,1.64-.05,3-.2,4.6-2.81,1.69-6.38,2.3-10.45,2.3-6.61,0-9.25-2.53-9.25-7.64m13.34-3.72a26.36,26.36,0,0,0-4.38.49c-1.67.41-2.35,1-2.35,3.15,0,2,1.2,2.54,3.26,2.54a9.7,9.7,0,0,0,3.32-.46,30.21,30.21,0,0,0,.14-3.14Z" transform="translate(-494.65 -22.93)"/>
      <path class="b" d="M660.53,62.56h-6.68V45.73c0-1.64.05-3,.2-4.6a21.07,21.07,0,0,1,10.37-2.3c8.65,0,9.63,3.69,9.63,8.94V62.56h-6.7V48.28c0-2.84-.54-4-3.78-4a8.66,8.66,0,0,0-2.9.46,29.42,29.42,0,0,0-.14,3.14Z" transform="translate(-494.65 -22.93)"/>
      <path class="b" d="M695.16,61.9a31,31,0,0,1-8.06,1c-7.89,0-9.06-6-9.06-12.22,0-7.66,1.81-11.82,10.49-11.82a20.46,20.46,0,0,1,6.6,1l-.54,4.91a22.2,22.2,0,0,0-4.44-.62c-4.75,0-5.34,1.55-5.34,6.53,0,4.72.24,6.78,5.4,6.78a20.08,20.08,0,0,0,4.38-.61Z" transform="translate(-494.65 -22.93)"/>
      <path class="b" d="M698.08,50.85c0-8.7,2.8-12,10.57-12s10.57,3.36,10.57,12-2.8,12-10.57,12-10.57-3.3-10.57-12m14.41,0c0-5.11-.74-6.55-3.84-6.55s-3.83,1.34-3.83,6.55.71,6.55,3.83,6.55,3.84-1.41,3.84-6.55" transform="translate(-494.65 -22.93)"/>
      <path class="b" d="M599.47,99.19l9-26.17c1.22-3.53,2.92-5,5.53-5s4.34,1.59,5.48,5l8.83,26.17h-7.64l-2.09-7h-9.61l-2,7Zm17.42-12.62-3.21-10.87-3.13,10.87Z" transform="translate(-494.65 -22.93)"/>
      <path class="b" d="M653.31,68.13V91.87c0,1.61.69,2.45,2.43,2.45a7.14,7.14,0,0,0,2-.27l.67,5a26.29,26.29,0,0,1-4.54.48c-5.14,0-7.33-2.27-7.33-6.85V68.13Z" transform="translate(-494.65 -22.93)"/>
      <path class="b" d="M660.11,91.83c0-4.24,1.86-6.82,6.72-7.62a53.22,53.22,0,0,1,6.69-.55c0-2.13-1.08-2.92-3.6-2.92a69.72,69.72,0,0,0-8.45.63l-.55-5.1a56.55,56.55,0,0,1,9.41-.94c5.33,0,9.8,1.52,9.8,7.75v9.5c0,1.65-.07,3-.2,4.63-2.83,1.69-6.41,2.31-10.52,2.31-6.64,0-9.3-2.54-9.3-7.68m13.41-3.74a26.54,26.54,0,0,0-4.4.49c-1.67.41-2.35,1-2.35,3.18,0,2,1.19,2.55,3.27,2.55a9.74,9.74,0,0,0,3.34-.46,29.73,29.73,0,0,0,.15-3.16Zm-.58-15.28h-5.14l3.46-5.89H678Z" transform="translate(-494.65 -22.93)"/>
      <path class="b" d="M692,99.19h-6.72V82.27c0-1.65.05-3,.2-4.63a21.2,21.2,0,0,1,10.43-2.31c8.7,0,9.69,3.71,9.69,9V99.19h-6.75V84.83c0-2.86-.54-4-3.8-4a8.71,8.71,0,0,0-2.92.46,31,31,0,0,0-.14,3.16Z" transform="translate(-494.65 -22.93)"/>
      <path class="b" d="M726.44,70c0-2.43.9-3.37,3.64-3.37s3.64.94,3.64,3.37-.89,3.37-3.64,3.37-3.64-.94-3.64-3.37m.24,5.32h6.84V99.19h-6.84Z" transform="translate(-494.65 -22.93)"/>
      <path class="b" d="M752.56,68.13h6.79V92.57c0,1.65-.06,3-.2,4.63a19.56,19.56,0,0,1-9.72,2.31c-8,0-11.32-2.82-11.32-12.1s3.34-12.08,10.66-12.08a21.74,21.74,0,0,1,3.79.35ZM750,80.75c-4.92,0-5.09,2.88-5.09,6.66,0,3.33.15,6.72,4.54,6.72a9.07,9.07,0,0,0,3-.45,30.73,30.73,0,0,0,.14-3.16V81.1a10.4,10.4,0,0,0-2.58-.36" transform="translate(-494.65 -22.93)"/>
      <path class="b" d="M763.6,91.83c0-4.24,1.88-6.82,6.72-7.62a53.83,53.83,0,0,1,6.71-.55c0-2.13-1.1-2.92-3.61-2.92a69.9,69.9,0,0,0-8.45.63l-.54-5.1a56.42,56.42,0,0,1,9.4-.94c5.33,0,9.8,1.52,9.8,7.75v9.5c0,1.65-.05,3-.2,4.63-2.83,1.69-6.41,2.31-10.51,2.31-6.65,0-9.31-2.54-9.31-7.68M777,88.08a26.57,26.57,0,0,0-4.4.49c-1.68.41-2.37,1-2.37,3.18,0,2,1.21,2.55,3.28,2.55a9.79,9.79,0,0,0,3.35-.46,29.9,29.9,0,0,0,.15-3.16Z" transform="translate(-494.65 -22.93)"/>
      <path class="b" d="M717.09,68.13v7.2h5.85v5.58h-5.85v11c0,1.61.69,2.45,2.43,2.45.7,0,1.41,0,2.17-.09l.53,4.81a26.28,26.28,0,0,1-4.54.48c-5.14,0-7.33-2.27-7.33-6.85V68.13Z" transform="translate(-494.65 -22.93)"/>
      <path class="b" d="M637.07,68.13v7.2h5.85v5.58h-5.85v11c0,1.61.69,2.45,2.43,2.45.7,0,1.41,0,2.17-.09L642.2,99a26.27,26.27,0,0,1-4.53.48c-5.15,0-7.33-2.27-7.33-6.85V68.13Z" transform="translate(-494.65 -22.93)"/>
    </g>
    <g class="c">
      <rect class="d" x="492.59" y="36.33" width="75.54" height="58.32" transform="translate(-127.86 551.3) rotate(-79.22)"/>
    </g>
    <g class="e">
      <rect class="f" x="525.28" y="37.55" width="71.88" height="65.71" transform="translate(-221.45 534.27) rotate(-66.54)"/>
    </g>
  </g>
</svg>
