<svg id="Layer_1" data-name="Layer 1" xmlns="http://www.w3.org/2000/svg" viewBox="0 0 500 500">
  <defs>
    <style>
      .cls-1 {
        fill: #fff;
      }
    </style>
  </defs>
  <title>mouse</title>
  <g>
    <g>
      <path class="cls-1" d="M252.1,315.39a5,5,0,0,1-4.91-4.8l-1.72-59.68a11.63,11.63,0,0,1-6.87-10.3l-.66-23a11.62,11.62,0,0,1,6.27-10.69l-.61-21.09,9.9-.29.6,21a11.72,11.72,0,0,1,7.14,10.41l.66,23a11.71,11.71,0,0,1-6.53,10.8l1.72,59.54a5,5,0,0,1-4.83,5.1Zm-2.7-102.32-.61.12a4.09,4.09,0,0,0-3.31,4.15l.66,23a4.1,4.1,0,0,0,3.54,4l.62.08.62-.1a4.12,4.12,0,0,0,3.45-4.18l-.66-23a4.12,4.12,0,0,0-3.68-4Z"/>
      <path class="cls-1" d="M252.11,367.67a62.51,62.51,0,0,1-62.45-60.57L193,202.36A35,35,0,0,1,201,179a29.32,29.32,0,0,1,21.8-10.85l14.14-.41-.67-23.24a10.84,10.84,0,0,1,10.51-11.14h0a10.83,10.83,0,0,1,11.14,10.52l.67,23.23,14.92-.43c17.35-.33,31.24,14.27,31.79,32.88L314.58,303a62.6,62.6,0,0,1-60.65,64.6Zm-8.16-185-20.71.6a14.46,14.46,0,0,0-10.66,5.46A20.31,20.31,0,0,0,208,202.38l-3.31,104.74c.75,25.6,22.57,46.15,48.76,45.45a47.41,47.41,0,0,0,46-48.64l-9.28-103.47c-.32-10.76-7.7-18.82-16.3-18.69Z"/>
    </g>
    <path class="cls-1" d="M250.38,485A234.49,234.49,0,0,1,80,89.54,234.49,234.49,0,0,1,484.94,243.76C488.67,373,386.55,481.18,257.3,484.9Q253.83,485,250.38,485Zm.34-446.36c-2.08,0-4.16,0-6.26.09A211.86,211.86,0,0,0,105.12,404.57a210.68,210.68,0,0,0,151.54,57.72c116.77-3.37,209-101.11,205.68-217.88A211.88,211.88,0,0,0,250.71,38.64Z"/>
  </g>
</svg>
