<svg id="Layer_1" data-name="Layer 1" xmlns="http://www.w3.org/2000/svg" viewBox="0 0 500 500">
  <defs>
    <style>
      .cls-1 {
        fill: #fff;
      }
    </style>
  </defs>
  <title>sombrilla</title>
  <path class="cls-1" d="M264.07,489.77A43.23,43.23,0,0,1,243,482.54c-12.7-8.61-19.27-23.14-18-39.88l17.1-236C220.51,209,196.47,223.47,194,258.1l-21.88-1.3.13-2.72a55.25,55.25,0,0,0-110.33-5.55L40,246.94l2.4-33.16C50.68,99.92,148,10.63,259.34,14.73,316.51,17,368.86,41.22,407.08,83.4c39.59,43.68,57.63,102.8,53.37,161.59l-2.34,32.25-21.87-1.58c2.74-37.83-33.46-69.65-74.52-56-20.5,6.78-34.12,26.29-35.68,47.83v.26l-21.85-1.62v0l0-.28a465.24,465.24,0,0,0-1.64-89.07A399.83,399.83,0,0,0,265.61,49.13c-22.36,39.91-39.08,76-50.93,110q-7,20.18-11.75,39.42a79.12,79.12,0,0,1,43-14.06,17.77,17.77,0,0,1,18.35,19L246.85,444.27c-.84,11.32,4.13,17.19,8.45,20.12A21.19,21.19,0,0,0,275.93,466c5.53-2.7,9-7.88,10.12-15.06a3.13,3.13,0,0,1,3.24-2.75s11.6-.8,14.66-1a3.74,3.74,0,0,1,4.11,4.57c-.31,2.1-.65,4.24-.77,4.87-2.72,13.12-10.39,23.5-21.72,29a42.16,42.16,0,0,1-21.49,4M122.56,175.55a77.06,77.06,0,0,1,56.14,30.68A430.93,430.93,0,0,1,194,151.86c12.45-35.65,30-73.52,53.53-115.29C159.6,38.77,83.64,105.68,67.11,193.63c1.54-1.3,3.14-2.55,4.79-3.74a77.35,77.35,0,0,1,50.67-14.34m162.72-136a427.57,427.57,0,0,1,39,134.62c1.63,13.78,2.65,27.89,3,42.27a77.06,77.06,0,0,1,112.15,4.8A187.82,187.82,0,0,0,285.29,39.5"/>
</svg>
