<svg id="Layer_1" data-name="Layer 1" xmlns="http://www.w3.org/2000/svg" viewBox="0 0 500 500">
  <defs>
    <style>
      .cls-1 {
        fill: #fff;
      }
    </style>
  </defs>
  <title>termo</title>
  <g>
    <path class="cls-1" d="M298,485.24l-77.85-.77a29.56,29.56,0,0,1-29.24-29.82l3-309.11a29.59,29.59,0,0,1,13.53-24.48l.09-9.43a5.82,5.82,0,0,1-4.86-5.66l.42-42.39c0-5-1.6-7.23-4.27-9.15L172.08,35.26l17.54-18.89,82.18,50.28a5.54,5.54,0,0,1-.18-1.47l.26-26.32-4.8,0,.11-11.58,54.72.54-.11,11.58-4.8,0-.26,26.32A5.72,5.72,0,0,1,314.59,70l7.17.07-.37,37.07a5.71,5.71,0,0,1-3.5,5.13l-.1,9.88a29.59,29.59,0,0,1,13,24.74l-3,309.11A29.56,29.56,0,0,1,298,485.24ZM210,104.49l4.92,0-.2,20.75-1.86,1a22.34,22.34,0,0,0-11.63,19.3l-3,309.11a22.3,22.3,0,0,0,22,22.49L298,478a22.29,22.29,0,0,0,22.49-22l3-309.11a22.35,22.35,0,0,0-11.24-19.53l-1.84-1.06.2-20.75,3.45,0,.28-28.27L306,77.17l.13-13,3.35,0,.29-29.26-30.6-.3-.29,29.26,3.35,0-.13,13-7.55-.07L190.89,25.66,183,34.16l20.06,14.38c5,3.62,7.37,8.42,7.3,15.12Z"/>
    <path class="cls-1" d="M298.26,491h-.35l-77.84-.77a35.33,35.33,0,0,1-34.94-35.63l3-309.11a35.18,35.18,0,0,1,13.56-27.4l0-2.8a11.37,11.37,0,0,1-4.83-9.37l.42-42.38c0-3.05-.65-3.53-1.87-4.41l-32.06-23L188.6,9l77.33,47.32.12-11.76-4.8,0,.22-23.09,66.23.65-.22,23.09-4.8,0-.19,19.2,5.08.05-.42,42.83a11.33,11.33,0,0,1-3.54,8.07l0,4a35.2,35.2,0,0,1,13,27.67l-3,309.11A35.32,35.32,0,0,1,298.26,491ZM215.77,98.79l4.92,0-.3,29.87-4.81,2.65a16.57,16.57,0,0,0-8.64,14.31l-3,309.11a16.53,16.53,0,0,0,16.35,16.67l77.85.77a17.1,17.1,0,0,0,11.71-4.73,16.38,16.38,0,0,0,5-11.62l3-309.11a16.59,16.59,0,0,0-8.36-14.48l-4.76-2.74L305,99.67l3.45,0L308.61,83l-8.43-.08.07-7.27h-1.55l1.56-1.28.16-16,3.35,0L304,40.61l-19.09-.19-.17,17.75,3.35,0-.24,24.54-14.89-.15L191.9,33l-.23.25,14.74,10.57c6.61,4.74,9.79,11.24,9.71,19.85Zm99.77-65.26h.54v-.06h-.54Zm-42.66-.42h.55v-.06h-.55Z"/>
  </g>
</svg>
